<svg xmlns="http://www.w3.org/2000/svg" id="Calque_2" viewBox="0 0 2551.98 573.71"><defs><style>.cls-1{fill:#f36744;}</style></defs><g id="Calque_1-2"><path class="cls-1" d="m912.95,484.46V89.28L987.78,0l34.15,40.04-56.47,66.96v359.72l56.47,66.96-34.15,40.04-74.83-89.25Z"></path><path class="cls-1" d="m1564.2,573.71l-34.15-40.04,56.47-66.96V107l-56.47-66.96L1564.2,0l74.83,89.28v395.18l-74.83,89.25Z"></path><path class="cls-1" d="m1825.9,484.46V89.28L1900.73,0l34.15,40.04-56.47,66.96v359.72l56.47,66.96-34.15,40.04-74.83-89.25Z"></path><path class="cls-1" d="m2477.15,573.71l-34.15-40.04,56.47-66.96V107l-56.47-66.96,34.15-40.04,74.83,89.28v395.18l-74.83,89.25Z"></path><path class="cls-1" d="m0,484.46V89.28L74.83,0l34.15,40.04-56.47,66.96v359.72l56.47,66.96-34.15,40.04L0,484.46Z"></path><path class="cls-1" d="m651.25,573.71l-34.15-40.04,56.47-66.96V107l-56.47-66.96L651.25,0l74.83,89.28v395.18l-74.83,89.25Z"></path><path class="cls-1" d="m1173.76,527l-69.29-69.29v-128.33s69.29-69.29,69.29-69.29h180.46s38.4-38.4,38.4-38.4v-83.05s-38.4-38.4-38.4-38.4h-156.45s-38.43,38.4-38.43,38.4v35.69h-54.87v-58.34s69.29-69.29,69.29-69.29h204.47s69.29,69.29,69.29,69.29v128.33s-69.29,69.29-69.29,69.29h-180.46s-38.43,38.43-38.43,38.43v83.02s38.43,38.4,38.43,38.4h156.45s38.4-38.4,38.4-38.4v-35.69h54.9v58.34s-69.29,69.29-69.29,69.29h-204.47Z"></path><path class="cls-1" d="m2274.48,66.15c-18.39-10.91-41.51-17.69-69.41-17.69-56.44,0-99.31,50.26-99.31,56.38,0,2.06.7,4.09,3.39,7.48l227.21,244.26c13.6,15.66,16.33,29.93,16.33,46.26,0,48.29-47.62,126.51-142.84,126.51-37.41,0-68.71-12.24-93.22-27.2l-46.23,16.33h-4.09v-131.96h4.76l51.02,112.91c21.08,13.6,51.02,25.88,87.77,25.88,62.55,0,110.75-49.2,110.75-66.85,0-5.45-1.36-10.21-8.15-18.39l-214.85-236.51c-13.6-15.63-18.36-31.29-18.36-48.29,0-56.47,57.14-110.88,125.81-110.88,19.76,0,46.96,4.09,72.8,17.03l42.83-6.82h4.79l2.69,114.27h-4.76l-48.95-102.7Z"></path><path class="cls-1" d="m327.87,530.95c-5.93-.12-13.65-1.54-15.34-1.95,0,0-4.55-1.22-5.55-1.57.26.15-5.87.17-8.01-.52-5.38-.41-8.7-1.37-11.01-3.12,0,0-8.04-4.28-10.21-6.12-1.17-.17-6.69-2.56-6.69-2.56-4.75-1.95-8.87-4.95-12.28-8.97l-1.31-1.57c-.89-.73-9.31-9.41-9.79-10.23-.03-.03-2.07-3.67-3.16-6.88-2.52-4.02-3.41-5.48-3.74-7.31.09.41-6.26-11.86-6.26-14.04-.04-.96-.82-11.83-1.12-13.84-1.37-2.33.89-9.06,2.29-11.04-.09-.09.67-3,.77-3.96.19-2.16,4.82-12.12,5.1-12.7.17-1.28,2.88-6.09,3.57-6.93,0,0,5.94-8.1,6.43-8.77.77-1.28,3.82-6.15,3.82-6.15,1.06-1.05,11.79-12.21,12.35-12.91,1.37-1.89,18.04-14.8,20.94-16.81l4.08-3.82c1.34-.73,20.24-11.01,21.1-11.36,3.09-1.11,8.38-3.09,12.18,1.08,2.39,2.13,5.51,5.71,5.01,10.26l-.34,3.23s-7.37,6.24-9.02,7.66c-.99,1.22-27,21.48-27.61,22.06-.79.76-1.65,1.46-2.58,2.1-.5,1.19-6.12,12.59-7.07,14.89-1.01,2.51-1.98,4.87-2.48,5.86-.39,1.02-1.6,11.63-1.88,15.3l-.31,4.57c.45,1.72,4.72,10.11,6.6,13,0,0,7.69,12.47,8.42,13.2,3.64,3.96,8.39,6.29,9.02,6.38l2.81,1.05c2.96,1.86,7.47,5.27,8.45,5.68,1.95.73,3.51,1.34,4.81,2.33.36.26,14,2.83,13.96,2.86,1.69-.44,9.56.67,12.69,1.11,0,0,19.79-2.16,21.65-2.42,2.93-.26,5.13-.85,7.07-1.84,2.67-1.72,5.2-3.32,7.91-3.55,1.97-1.08,26.87-18.68,28.79-19.26.74-.61,9.21-7.26,9.24-7.31,2.55-3.35,8.71-10.61,8.71-10.61,1.65-1.78,4.95-9.21,5.45-11.1-.06-1.69,2.14-6.76,2.56-7.61h.15c-.12-1.69.13-10.78.47-12.5-.26-1.81-1.62-9.64-1.62-10.49-.32-1.08-2.11-7.63-2.11-9.12-.99-1.54-3.1-6.09-3.48-7.31-.57-1.34-1.09-3.23-1.34-5.07-1.3-1.95-9.06-16.32-9.27-16.99-.87-.55-8.2-12.94-8.76-13.49-1.05-1.05-23.11-34.18-23.62-36.34-1.54-2.16-16.19-24.59-16.8-26.05,0,0-22-36.02-22.32-36.8-.9-1.22-13.14-17.25-13.91-18.27-3.31-3.55-6.13-7.4-7.9-10.9-.67-.52-16.48-24.16-16.48-24.16-2.2-2.94-7.72-12.21-8.07-14.34-2.8-3.7-6.69-16.87-6.69-16.87,0,0-1.11-9.85-1.62-12.09-.8-3.53-.82-7.37-.07-11.48l.77-9.94-.04-.03s1.75-11.8,3.35-14.22c.2-1.34,2.04-8.25,2.04-8.25,0,0,4.11-5.83,5.89-8.01,1.28-2.83,2.2-4.46,3.19-5.62.35-.44,17.92-17.22,19.13-18.1,1.88-3.12,4.11-4.66,6.08-5.42.85-1.49,10.27-7.4,12.19-8.16,0,0,26.05-12.59,27.77-13.46,2.27-2.16,28.64-8.04,28.85-8.07l4.87-1.75c4.92-.99,9-.96,12.35-.15,5.04.06,17.16,3.93,17.16,3.93,3.82,1.08,17.63,8.51,18.52,8.77,2.39.29,8.14,5.1,8.14,5.1,2.71,1.78,4.23,3.7,4.9,5.8,2.11,2.77,14.12,17.22,15.6,20.78,1.59,2.04,6.82,13.81,7.12,14.39,1.92,2.3,1.97,5.16,2.03,8.86l.29,5.45s-3.03,9.32-4.23,11.1c.15.26-4.12,13.58-4.12,13.58-1.73,2.24-10.9,13.08-12.12,14.31,0,0-12.08,13.32-13.39,14.42-.44.38-2.05,1.84-2.96,2.83l-.09.17c-1.97,3.26-3.82,3.58-14.03,5.3l-2.42.44c-6.26,1.57-9.4-4.49-10.46-6.5-2.77-2.33-2.4-7.17-1.66-11.07.22-1.25,4.59-8.51,5.55-9.97l2.9-2.54c2.93-1.46,5.67-4.66,6.98-5.59.85-2.21,4.59-9.62,5.52-10.9.09-1.05.52-12.56.51-12.97-1.11-1.54-1.81-3.38-2.04-5.45l-1.53-4.66c0-.82,0-1.49-.04-2.01l-.23.15s-3.03-5.65-3.35-6.21c-2.26-1.05-4.02-2.74-5.16-4.92-1.09-.76-7.61-7.17-7.71-7.23-.9-.58-6.79-3.35-7.1-3.5,0,0-13.8-4.2-14.53-4.52-.61-.03-6.88-.61-6.88-.61-2.07.82-5.13.73-7.91.41-.64.03-12.59,3.18-12.98,3.35l-.07-.12c-4.24,3.15-19.42,9.24-20.82,9.79-2.27,1.98-8.73,4.46-8.73,4.46,0,0-6.06,6.85-8.13,8.42-.5.64-6.13,12.41-6.85,13.58.23,3.9.38,9.99-.41,14.54.85,3.5,1.5,8.57,1.22,10.49.73.85,1.86,5.42,2.88,9.67.68,2.86,20.31,35.49,21.1,36.54.73.99,15.31,23.08,15.31,23.08,1.24,1.11,5.8,6.21,6.44,8.13.25.76,12.98,23.98,13.75,24.86,1.01,1.17,12.76,18.01,13.37,19.03,1.31,1.08,10.07,12.09,10.59,12.65l1.63,2.59c.25.67,2.04,3.44,2.43,4.49,2.74,3.85,26.56,39.48,26.85,39.92.51.79,14,24.33,14.29,25.2h0c.2,0,3.57,4.78,3.57,4.78,1.5,2.21,11.36,24.27,11.57,24.97.74,2.74,1.91,6.67,2.99,10.29,1.22,4.11,2.35,7.9,2.65,9.27.73,3.21.92,6.76.57,10.78l-.86,2.86c-1.94,3.64-2.59,6-2.8,7.34-.44,2.97-1.33,5.62-2.62,7.9-.13,3.88-1.3,7.17-3.47,9.79-1.5,1.75-8.95,11.77-9.97,13.55-1.17,2.3-23.02,20.89-24.43,21.48-3.48,3.96-35.17,26.49-36.77,27.19,0,0-25.76,16.43-27.48,17.37-1.27.7-7.93,4.52-14.55,6.82,0,0-18.37,4.05-20.62,3.82,0,0-4.44.32-5.54.67-2.05.61-8.99,1.02-10.42,1.02Z"></path></g></svg>
