<svg xmlns="http://www.w3.org/2000/svg" xmlns:xlink="http://www.w3.org/1999/xlink" id="Calque_1" x="0px" y="0px" viewBox="0 0 319.6 42.3" style="enable-background:new 0 0 319.6 42.3;" xml:space="preserve"><style type="text/css">	.st0{fill:#00000;}</style><g>	<path class="st0" d="M5.1,38.2L0,33.1v-4.3h4v2.6l2.8,2.8h11.5l2.8-2.8v-6.1l-2.8-2.8H5.1L0,17.3V7.9l5.1-5.1h15.1l5.1,5.1v4.3h-4  V9.5l-2.8-2.8H6.9L4,9.5v6.1l2.8,2.8h13.3l5.1,5.1v9.5l-5.1,5.1H5.1z"></path>	<path class="st0" d="M34.6,38.2l0-3.9V6.7l0-3.9h4l0,3.9v27.5l0,3.9H34.6z"></path>	<path class="st0" d="M89.4,38.2l-5.1-5.1V7.9l5.1-5.1h15.1l5.1,5.1v4.3h-4V9.5l-2.8-2.8H91.2l-2.8,2.8v21.9l2.8,2.8h14.4V23.9h-5.1  V20h9.1v18.2H89.4z"></path>	<path class="st0" d="M124.6,38.2l-5.1-5.1V2.8h4v28.6l2.8,2.8h11.5l2.8-2.8V2.8h4v30.3l-5.1,5.1H124.6z"></path>	<path class="st0" d="M154.9,38.2V2.8h4v31.5h17.2v3.9H154.9z"></path>	<path class="st0" d="M183.4,38.2l0-3.9V6.7l0-3.9h4.1l0,3.9v27.5l0,3.9H183.4z"></path>	<path class="st0" d="M198,38.2V2.8h23.3v3.9H202v11.8h14.2v3.9H202v11.8h19.2v3.9H198z"></path>	<path class="st0" d="M251.8,38.2L251.8,38.2l-12.9-15.6h-4.8v15.6h-4V2.8h20.2l5.1,5.1v9.6l-5.1,5.1h-6.2l11.3,13.6v2H251.8z   M251.3,9.5l-2.8-2.8h-14.4v11.9h14.4l2.8-2.8V9.5z"></path>	<path class="st0" d="M266.1,35.7V6.6l5.5-6.6l2.5,3l-4.2,4.9v26.5l4.2,4.9l-2.5,3L266.1,35.7z"></path>	<path class="st0" d="M314.1,42.3l-2.5-3l4.2-4.9V7.9L311.6,3l2.5-3l5.5,6.6v29.1L314.1,42.3z"></path>	<g>		<path class="st0" d="M70.4,38.2v-8.1L53.2,9.3v28.9h-4V2.8h4l17.2,20.6V2.8h4v35.4H70.4z"></path>	</g></g><path class="st0" d="M285.6,38.9l-5.1-5.1v-9.5l5.1-5.1h13.3l2.8-2.8v-6.1l-2.8-2.8h-11.5l-2.8,2.8v2.6h-4V8.6l5.1-5.1h15.1l5.1,5.1 V18l-5.1,5.1h-13.3l-2.8,2.8v6.1l2.8,2.8h11.5l2.8-2.8v-2.6h4v4.3l-5.1,5.1H285.6z"></path></svg>
